<svg width="27" height="24" viewBox="0 0 27 24" fill="none" xmlns="http://www.w3.org/2000/svg">
<path d="M25.887 0.0644091C25.887 0.0644091 -2.72072 -1.66156 0.649687 18.3842C0.649687 18.3842 -0.0298367 21.9279 3.19108 23.5349C3.19108 23.5349 3.24204 22.0502 6.1266 22.5564C7.15356 22.7267 8.19682 22.7768 9.23538 22.7059C10.6364 22.6138 11.9695 22.0689 13.0339 21.1532C13.0339 21.1532 21.076 17.8304 24.2017 4.68852C24.2017 4.68852 26.5155 1.82096 26.4238 1.08368L21.5958 3.14602C21.5958 3.14602 23.247 6.62855 21.9356 9.52329C21.9356 9.52329 21.7793 3.27173 20.8517 3.40764C20.6649 3.43482 18.3443 4.61378 18.3443 4.61378C18.3443 4.61378 21.1813 10.6785 19.0408 15.0885C19.0408 15.0885 19.8528 7.61385 17.4575 5.05207L14.06 7.03626C14.06 7.03626 17.376 13.3014 15.1268 18.4148C15.1268 18.4148 15.7044 10.5731 13.3431 7.51871L10.2649 9.92081C10.2649 9.92081 13.3804 16.0942 11.4812 20.3344C11.4812 20.3344 11.2332 11.2085 9.59892 10.5188C9.59892 10.5188 6.90463 12.8971 6.49352 13.8688C6.49352 13.8688 8.62721 18.3536 7.30215 20.7183C7.30215 20.7183 6.49013 14.6367 5.82421 14.6027C5.82421 14.6027 3.1401 18.6322 2.8615 21.3979C2.8615 21.3979 2.97702 17.2902 5.17526 14.2222C5.17526 14.2222 2.57951 14.6672 1.06418 16.349C1.06418 16.349 1.48208 13.5019 5.83779 13.2504C5.83779 13.2504 8.05642 10.1926 8.6476 10.0091C8.6476 10.0091 4.31906 9.6456 1.69273 10.811C1.69273 10.811 4.00311 8.12349 9.44265 9.34662L12.4835 6.86298C12.4835 6.86298 6.78233 6.08493 4.36325 6.94452C4.36325 6.94452 7.14587 4.56621 13.3023 6.29898L16.6115 4.32159C16.6115 4.32159 11.7496 3.27513 8.85485 3.64207C8.85485 3.64207 11.9127 1.99424 17.5833 3.78137L19.9616 2.71793C19.9616 2.71793 16.4009 2.01803 15.3578 1.90591C14.3148 1.79378 14.2604 1.50838 14.2604 1.50838C16.5163 1.13222 18.8322 1.38981 20.9503 2.25246C20.9503 2.25246 25.9719 0.380385 25.887 0.0644091Z" fill="#1E988A"/>
</svg>
