<svg width="1024" height="1024" viewBox="0 0 1024 1024" fill="none" xmlns="http://www.w3.org/2000/svg">
<rect width="1024" height="1024" fill="white"/>
<rect width="1024" height="1024" fill="url(#paint0_linear)"/>
<path d="M809.162 240.887C809.162 240.887 128.361 199.771 208.569 677.3C208.569 677.3 192.398 761.717 269.048 800C269.048 800 270.261 764.631 338.908 776.69C363.347 780.745 388.174 781.941 412.89 780.251C446.231 778.057 477.956 765.076 503.286 743.263V743.263C503.286 743.263 694.67 664.107 769.057 351.043C769.057 351.043 824.12 282.732 821.937 265.168L707.041 314.297C707.041 314.297 746.337 397.258 715.127 466.216C715.127 466.216 711.407 317.292 689.334 320.529C684.887 321.177 629.663 349.262 629.663 349.262C629.663 349.262 697.177 493.734 646.238 598.791C646.238 598.791 665.563 420.729 608.56 359.703L527.704 406.97C527.704 406.97 606.619 556.218 553.093 678.028C553.093 678.028 566.838 491.225 510.644 418.463L437.389 475.686C437.389 475.686 511.534 622.748 466.336 723.757C466.336 723.757 460.433 506.361 421.541 489.93C421.541 489.93 357.423 546.586 347.64 569.734C347.64 569.734 398.417 676.571 366.883 732.903C366.883 732.903 347.559 588.026 331.711 587.217C331.711 587.217 267.835 683.208 261.205 749.091C261.205 749.091 263.954 651.238 316.268 578.152C316.268 578.152 254.494 588.755 218.433 628.818C218.433 628.818 228.378 560.993 332.035 555.004C332.035 555.004 384.833 482.16 398.902 477.79C398.902 477.79 295.892 469.13 233.391 496.891C233.391 496.891 288.373 432.87 417.822 462.007L490.187 402.842C490.187 402.842 354.513 384.308 296.944 404.785C296.944 404.785 363.164 348.129 509.674 389.407L588.427 342.301C588.427 342.301 472.723 317.373 403.834 326.114C403.834 326.114 476.604 286.86 611.551 329.432L668.15 304.099C668.15 304.099 583.414 287.426 558.591 284.755C533.769 282.084 532.475 275.286 532.475 275.286C586.159 266.325 641.274 272.461 691.679 293.011C691.679 293.011 811.183 248.414 809.162 240.887Z" fill="white"/>
<defs>
<linearGradient id="paint0_linear" x1="512" y1="0" x2="512" y2="1024" gradientUnits="userSpaceOnUse">
<stop stop-color="#1E988A"/>
<stop offset="1" stop-color="#06706B"/>
</linearGradient>
</defs>
</svg>
