<svg width="375" height="269" viewBox="0 0 375 269" fill="none" xmlns="http://www.w3.org/2000/svg">
  <g clip-path="url(#clip0)">
    <g clip-path="url(#clip1)">
      <path opacity=".1" d="M215.28 42.77c-21.98-.57-42.93-5.85-62.93-11.62S112.55 18.97 91.1 15.9c-13.8-1.97-29.6-2.25-40.72 3.25-10.7 5.3-14.16 14.43-16.02 22.93-1.4 6.38-2.22 13.1 1.61 19.07 2.66 4.14 7.39 7.63 10.66 11.6 11.37 13.83 3.33 30.87-9 44.37-5.77 6.33-12.48 12.37-16.94 19.11-4.46 6.74-6.52 14.46-2.62 21.34 3.87 6.8 13.09 11.93 23.07 15.53 20.28 7.31 44.17 9.4 67.48 10.59 51.59 2.62 103.44 1.49 155.17.34 19.14-.42 38.36-.85 57.2-3.06 10.45-1.22 21.24-3.16 28.84-7.84 9.63-5.95 12.02-16.01 5.56-23.46-10.83-12.5-40.77-15.61-48.35-29.03-4.16-7.38.11-15.6 6.17-22.46 13-14.69 34.77-27.58 35.91-44.37.8-11.54-9.68-23.09-25.86-28.55-16.97-5.71-40.5-5-53 4.47-12.9 9.76-35.55 13.52-54.97 13.03z" fill="#1E988A"/>
      <g opacity=".8">
        <path opacity=".8" d="M334.95 67.78s-3.83-1.55-16.02 4.04c-12.19 5.6-13.71 4.89-16.87 4.03-3.15-.86-4.91-1.06-8.3-5.73 0 0-2.38-12.94-4.7-14.96-2.31-2.01-12.12 1.15-12.12 1.15s-11.76 2.7-14.01-13.03c0 0 1.59-11.86-.58-15.5 0 0 4.38 1.88 11.6-1.16 7.2-3.05 12.98 3.28 12.98 3.28s1.82 4.72 1.63 7.53c-.19 2.8.97 3.86 4.42 2.5 0 0 1.7-2.4-.7-6.38s-4.1-6.94-3.44-10.03c.67-3.1 2.6-7.37 8.77-9.52 6.17-2.15 14.56-2.55 18.58-4.21 4.03-1.66 5-2.77 5-2.77s-2.48 2.48 3.36 13c5.84 10.53 2.12 15.1 2.12 15.1s-3.1 7.41-16.81 6.8c0 0-13.2.49-6.01 6.1 0 0 4.61-.95 11.5-3.14 6.9-2.2 11.88 6.86 13.11 13.16 1.24 6.3 6.5 9.74 6.5 9.74z" fill="#1E988A"/>
        <path opacity=".8" d="M317.2 14.99l.08-.02c.53 2-5.37 10.08-10.42 16.5l-.06-.05c7.12-9.05 10.83-14.89 10.4-16.43z" fill="#444053"/>
        <path opacity=".8" d="M306.9 31.29l.04.08a350.87 350.87 0 0 1-13.16 15.78c-.39.43-.77.88-1.14 1.36l-.12-.1c.38-.46.76-.91 1.15-1.35a353.5 353.5 0 0 0 13.23-15.77z" fill="#444053"/>
        <path opacity=".8" d="M292.62 48.28l.08.14c-7.38 9.22-7.87 23.54-7.89 23.67l-1.55-1.78c.01-.15 1.93-12.74 9.36-22.03z" fill="#444053"/>
        <path opacity=".8" d="M326.4 62.78s-8.7-4.53-15.5-2.9c-6.78 1.62-22.05-5.75-22.05-5.75s-6.49-2.63-7.8-5.64c0 0-4.44-4.7-4.7-7.14-.25-2.43-4.59-8.56-7.4-8.78M325.14 67.14s-4.39-2.95-3.88-6.4M318.41 70.96s-6.27-2.28-6.9-11.22M308.3 73.27s-6-4.97-4-13.67M296.13 70.84s-3.98-8.37-.43-13.82M326.5 57.26s-4.54 1.44-3.56 3.83M321.02 49.03s-6.06 1.92-6.2 10.51M312.56 47.04s-5.52 6.82-5.13 13.02M302.9 49.72s-5.5 5.25-4.8 8.16M299.59 47.87s-5.15.92-5.86-.77M292.9 41.65s2.6 3.45 3.27 2.67M318.66 39.47s-12.96.94-15.9-2.97M290.18 24.3s6.08 13.06 10.5 14.73M296.56 18.07s3.74 12.02 8.37 15.78" stroke="#444053" stroke-miterlimit="10"/>
        <path opacity=".8" d="M324.12 29.55s-9.85 4.24-15.78-.05M305.34 15.51s2.25 8.84 5.29 10.97M322.63 19.65s-5.54 2.1-7.6.49" stroke="#444053" stroke-width=".75" stroke-miterlimit="10"/>
        <path opacity=".8" d="M288.16 44.54s0 7.7-2.1 8.25M271.03 54.52s8.32.71 12.16-3.59M286 35.44s-2 7.82-7.56 9.91M266.04 46.29s5.89 2.04 10.95-3.17M279.46 28.73s-.56 6.63-4.16 9.73M266.26 36.18s4.89.03 6.03-1.56" stroke="#444053" stroke-miterlimit="10"/>
      </g>
      <path opacity=".1" d="M105.31 262.12c40.9 0 74.07-2.36 74.07-5.27 0-2.9-33.16-5.27-74.07-5.27-40.9 0-74.06 2.36-74.06 5.27 0 2.91 33.16 5.27 74.06 5.27z" fill="#1E988A"/>
      <path d="M148.22 228.16c1.02-1.83 2.24-3.56 3.22-5.41.9-1.7 1.6-3.5 2.42-5.25 1.39-3 3.1-5.82 4.66-8.73 1.02-1.91 2-3.99 1.81-6.14-.19-2.04-1.38-3.81-1.84-5.78-1.89-8.1-6.42-15.53-9.18-23.36-.7-1.99-1.4-3.99-2.28-5.9-1.7-3.7-4.07-7-6.45-10.3a29.06 29.06 0 0 0-2.85-3.54c-.86-.86-1.81-1.6-2.59-2.53-1.6-1.9-2.34-4.65-4.34-6.12l-.11.26c-1.43-3.66-6.23-6.07-9.01-9.1a53.55 53.55 0 0 1-4.46-5.86l-6.06-8.76c-1.04-1.51-2.1-3.06-2.53-4.86-.51-2.17-.03-4.48-.55-6.65a8.4 8.4 0 0 0-1.85-3.52l.18-.06c1.16-.3 2.38-.36 3.53-.64 2.5-.6 4.67-2.19 7.15-2.83 1.27-.34 2.63-.4 3.78-1.02a3.15 3.15 0 0 0 1.46-3.34c-.8-4.26 1.45-8.59 1.06-12.92-.1-1.2-.4-2.36-.6-3.55a37.64 37.64 0 0 1-.21-8.37c.77-1.26 1.7-2.41 2.77-3.44 1.53-1.48 3.35-2.72 4.41-4.57a8.9 8.9 0 0 0 .92-5.48c-.16-1.36-.63-2.79-1.7-3.62-1.07-.82-2.6-.88-3.9-.45l-.53.2a4.45 4.45 0 0 0-3.51-.2c-1.3.43-2.4 1.28-3.44 2.17a7.85 7.85 0 0 0-1.6 1.7c-.66 1.02-.85 2.28-1.1 3.48a34.01 34.01 0 0 1-2.29 6.72c-.18.39-.68 1.07-1.08 1.72l-.73-.15c-.31 3.03-2.85 5.25-4.39 7.87-.75 1.27-1.28 2.66-1.95 3.98a38.47 38.47 0 0 1-2.58 4.14l-2.76 4.04a57.45 57.45 0 0 1-3.74 5.06c-1.24-.1-2.49-.2-3.73-.21a30.3 30.3 0 0 0-6.22.55c-.12-.72-.2-1.45-.22-2.18v-.13c0-.18.02-.39.04-.62a12.58 12.58 0 0 0-.6-21.28c.07-.38.1-.77.13-1.16v-.68c0-.11 0-.23-.03-.34a4.49 4.49 0 0 0-.49-1.63.3.3 0 0 0-.02-.03l-.14-.21-.07-.09-.11-.14-.09-.09-.11-.12-.1-.08-.12-.1-.1-.09-.13-.09-.12-.08-.12-.08-.13-.07-.12-.07-.14-.07-.13-.06-.14-.07-.13-.05-.16-.06-.12-.05-.17-.06-.1-.03-.2-.06-.1-.03-.2-.06-.09-.02-.22-.06-.06-.01-.25-.06h-.04l-.36-.07c-1.48-.31-2.98-.57-4.49-.8-1.23-.18-2.5-.34-3.71-.06-1.68.37-3.08 1.5-4.65 2.21-1.85.84-3.91 1.06-5.9 1.52-1.97.46-4 1.24-5.24 2.86-.95 1.24-1.33 2.82-1.6 4.35-2.36 12.8.18 25.92.66 38.93.18 5.06-.05 10.48-2.91 14.62l8.35-.22a20.29 20.29 0 0 0 2.43-.15c1.06-.1 2.09-.4 3.02-.9.44-.26.84-.56 1.18-.93 1.14-1.16 1.74-2.8 2.3-4.36a42.28 42.28 0 0 0 .73-2.28l.02-.11.1.04c.34.64.72 1.27 1.13 1.87 1.46 2.15 3.3 3.99 5.14 5.81 3.65 3.62 7.37 7.31 11.94 9.63 1.55.78 3.22 1.44 4.4 2.72.57.63 1.07 1.43 1.89 1.64.5.13 1.07 0 1.55.22.72.3.98 1.16 1.3 1.87.34.7 1.08 1.42 1.79 1.1a3.57 3.57 0 0 0 1.33 3.55c.34.19.64.45.86.77.11.3.17.6.18.91.14.87.6 1.66 1.29 2.2-.67 1.1-.14 2.68-.12 4.05 0 1.15-.38 2.26-.63 3.38-.76 3.28-.34 6.71.27 10.02.34 1.83.77 3.72 1.96 5.13.39.46.85.86 1.26 1.3.77.88 1.42 1.87 1.92 2.93a22.95 22.95 0 0 1 2.08 6.68c.16 1.16.5 2.3.98 3.37.75 1.62.07 3.62.73 5.28.3.74.86 1.38 1.04 2.16.26 1.13-.34 2.26-.5 3.42-.38 2.7 1.56 5.2 1.74 7.92.03.16 0 .32-.1.46-.13.15-.36.15-.53.23-.34.16-.44.62-.55 1-.1.38-.41.82-.79.7-5.58 2.99-11.36 5.75-16.94 8.74l-2.55 1.36-13.63 7.28a.98.98 0 0 0-.54.9l.03.49c-.95.24-1.87.52-2.52.64l-.8.16c.06-.1.1-.22.12-.34a.68.68 0 0 0-.6-.68c-.34-.03-.67.01-.99.13-.78.21-1.57.36-2.38.44-.95.09-1.92.09-2.85.34-.92.25-1.83.81-2.2 1.7a4.13 4.13 0 0 0-.25 1.6 24.58 24.58 0 0 0 .82 6.47c.04.06.1.12.17.17.12.04.26 0 .38.05.1.06.18.16.22.28.57 1.3.7 2.75.86 4.16.22 2.1.51 4.19.86 6.27.2 1.22.45 2.5 1.24 3.43.87 1.02 2.25 1.47 3.58 1.65 2.8.38 5.63-.19 8.4-.77.51-.1 1.07-.24 1.41-.64.26-.32.38-.73.34-1.13-.06-1.4-1.33-2.38-2.49-3.17l-1.57-1.09a.68.68 0 0 1-.34-.77l.1-2.06h-.3a7.41 7.41 0 0 1 1.95-3.85c.74-.68 1.7-1.16 2.47-1.78a6.1 6.1 0 0 0 3.43 1.26c2.04-2.75 4.91-4.62 7.79-6.46a76.3 76.3 0 0 1 7.22-4.03c2-1 4.04-1.92 6.11-2.8 2.92-1.22 5.9-2.32 8.88-3.4 1.99-.7 4-1.4 5.82-2.46 4.76-2.75 8.12-8.24 7.48-13.74-.81-6.94.92-14.16.8-21.15-.03-2.04-.1-4.08-.73-6.03.15.1.28.21.4.34 1.25 1.15 1.54 2.99 2.73 4.3.92 1.04 2.32 1.7 2.88 2.97.42.97.36 2.28 1.24 2.84.26.16.56.23.8.38.3.22.56.5.75.8.94 1.35 1.92 2.79 2.02 4.43.04.65-.02 1.4.46 1.84.13.12.3.22.38.39.15.33-.25.7-.31 1.07-.1.53.41.92.73 1.36a2.14 2.14 0 0 1 0 2.52c-2.78 3.62-3.28 8.5-5.72 12.37-.84 1.34-1.78 2.6-2.6 3.96-2.5 4.15-3.77 8.93-5 13.63a7.53 7.53 0 0 0 2.09 2.33 11.56 11.56 0 0 1-2.33 4.3c-.27.3-.53.63-.77.96-.2-.25-.46-.45-.75-.57a26.96 26.96 0 0 0-.68 5.95c0 1.32.17 2.83 1.25 3.59.42.27.9.46 1.39.57l2.33.68c.4.16.85.2 1.28.13.28-.08.52-.25.8-.3.31-.03.62 0 .9.12l2.02.58c.68.19 1.35.42 2 .7.57.28 1.1.64 1.66.95.94.47 1.91.87 2.91 1.2l3.48 1.19c.97.38 1.98.65 3 .78.72.06 1.44 0 2.15.12.53.1 1.06.29 1.6.34a4.2 4.2 0 0 0 3.24-1.4c.5-.8.07-1.85-.43-2.65a10.47 10.47 0 0 0-3.59-3.74c-.62-.34-1.28-.59-1.92-.9-1.8-.89-3.17-2.36-4.88-3.37a1.15 1.15 0 0 0-1.46.1c-1.42-.93-2.96-1.83-3.74-3.33a7.48 7.48 0 0 1-.68-2.29c.8.19 1.6.34 2.42.47 1.32-5.13 2.76-10.34 5.35-14.97zm-32.64-145l-.22 1.15c-.68 3.19-1.66 6.77-3.88 9.14a8.49 8.49 0 0 1-2.5 1.66l-.25.12c1.6-4.28 4.15-8.24 6.85-12.07z" fill="url(#paint0_linear)"/>
      <path d="M118.87 64.22c.25-1.18.44-2.43 1.1-3.45.44-.64.99-1.22 1.6-1.7a10.72 10.72 0 0 1 3.45-2.16c1.3-.42 2.81-.37 3.9.46 1.09.82 1.55 2.24 1.72 3.59.23 1.86 0 3.82-.92 5.44-1.06 1.84-2.88 3.06-4.42 4.53a17.58 17.58 0 0 0-2.88 3.6c-.36.68-.8 1.33-1.3 1.91a2.5 2.5 0 0 1-2.1.84c-.65-.11-1.18-.57-1.7-1-.62-.55-2.31-1.53-2.37-2.4-.04-.71 1.28-2.32 1.6-2.98 1-2.14 1.78-4.38 2.32-6.68z" fill="#FBBEBE"/>
      <path opacity=".1" d="M118.87 64.22c.25-1.18.44-2.43 1.1-3.45.44-.64.99-1.22 1.6-1.7a10.72 10.72 0 0 1 3.45-2.16c1.3-.42 2.81-.37 3.9.46 1.09.82 1.55 2.24 1.72 3.59.23 1.86 0 3.82-.92 5.44-1.06 1.84-2.88 3.06-4.42 4.53a17.58 17.58 0 0 0-2.88 3.6c-.36.68-.8 1.33-1.3 1.91a2.5 2.5 0 0 1-2.1.84c-.65-.11-1.18-.57-1.7-1-.62-.55-2.31-1.53-2.37-2.4-.04-.71 1.28-2.32 1.6-2.98 1-2.14 1.78-4.38 2.32-6.68z" fill="#000"/>
      <path d="M83.2 98.2a30.46 30.46 0 0 1 8.34-1.01c4.7.06 9.54 1.2 14.01-.24 1.16-.4 2.28-.89 3.36-1.46.9-.45 1.82-.9 2.51-1.64 2.23-2.36 3.19-5.92 3.88-9.09.7-3.17.88-6.43 1.06-9.67 1.16.54 2.38 1.08 3.66.97 1.29-.11 2.56-1.09 2.56-2.38-.2 3-.34 6.04.17 9 .2 1.18.5 2.34.6 3.53.38 4.3-1.87 8.6-1.06 12.83a3.11 3.11 0 0 1-1.46 3.32c-1.16.62-2.52.7-3.79 1.02-2.49.63-4.66 2.22-7.17 2.8-1.16.28-2.37.35-3.52.64-1.65.44-3.15 1.38-4.83 1.68-1.26.23-2.56.08-3.84.18-1.1.1-2.19.39-3.3.41-2.72.07-5.3-1.47-7.1-3.51-1.8-2.04-2.95-4.9-4.09-7.37z" fill="#1E988A"/>
      <path opacity=".1" d="M83.2 98.2a30.46 30.46 0 0 1 8.34-1.01c4.7.06 9.54 1.2 14.01-.24 1.16-.4 2.28-.89 3.36-1.46.9-.45 1.82-.9 2.51-1.64 2.23-2.36 3.19-5.92 3.88-9.09.7-3.17.88-6.43 1.06-9.67 1.16.54 2.38 1.08 3.66.97 1.29-.11 2.56-1.09 2.56-2.38-.2 3-.34 6.04.17 9 .2 1.18.5 2.34.6 3.53.38 4.3-1.87 8.6-1.06 12.83a3.11 3.11 0 0 1-1.46 3.32c-1.16.62-2.52.7-3.79 1.02-2.49.63-4.66 2.22-7.17 2.8-1.16.28-2.37.35-3.52.64-1.65.44-3.15 1.38-4.83 1.68-1.26.23-2.56.08-3.84.18-1.1.1-2.19.39-3.3.41-2.72.07-5.3-1.47-7.1-3.51-1.8-2.04-2.95-4.9-4.09-7.37z" fill="#000"/>
      <path d="M205.38 102.38a23.38 23.38 0 0 1 22.94 27.98 23.42 23.42 0 0 1-18.38 18.38A23.37 23.37 0 0 1 182 125.78a23.41 23.41 0 0 1 23.4-23.4zm0-5.78a29.15 29.15 0 0 0-26.94 18.02 29.2 29.2 0 0 0 21.25 39.8 29.15 29.15 0 0 0 34.86-28.63 29.22 29.22 0 0 0-29.17-29.19z" fill="#004142"/>
      <path d="M207.9 89.78h-6.84v7.2h6.84v-7.2zM225.95 96.22l-5.86-3.52-3.7 6.17 5.86 3.52 3.7-6.17zM237.97 110.47l-3.32-5.98-6.29 3.5 3.31 5.97 6.3-3.49zM234.56 146.88l3.63-5.8-6.1-3.81-3.63 5.8 6.1 3.81zM179.1 113.96l3.3-5.98-6.29-3.5-3.31 5.99 6.3 3.5zM182.3 143.07l-3.62-5.8-6.1 3.81 3.62 5.8 6.1-3.81zM188.52 102.4l5.86-3.53-3.71-6.17-5.86 3.52 3.7 6.17zM207.9 154.6h-6.84v7.2h6.84v-7.2zM222.25 149.18l-5.86 3.52 3.7 6.17 5.86-3.52-3.7-6.17zM184.81 155.35l5.86 3.53 3.7-6.18-5.85-3.52-3.7 6.17zM176.96 122.9h-8.28v6.13h8.28v-6.12zM233.8 129.03h8.28v-6.13h-8.27v6.13zM259.72 60.26a23.38 23.38 0 0 1 22.93 27.97 23.42 23.42 0 0 1-18.37 18.39 23.37 23.37 0 0 1-27.95-22.96 23.41 23.41 0 0 1 23.39-23.4zm0-5.78a29.15 29.15 0 0 0-28.6 34.88 29.2 29.2 0 0 0 22.9 22.92 29.15 29.15 0 0 0 34.86-28.62 29.22 29.22 0 0 0-29.16-29.18z" fill="#004142"/>
      <path d="M262.23 47.65h-6.83v7.2h6.83v-7.2zM280.29 54.1l-5.86-3.53-3.7 6.17 5.85 3.52 3.7-6.17zM292.3 68.34L289 62.36l-6.3 3.5 3.32 5.97 6.3-3.49zM288.9 104.76l3.62-5.8-6.1-3.82-3.63 5.8 6.1 3.82zM233.42 71.84l3.32-5.99-6.3-3.49-3.31 5.99 6.3 3.49zM236.64 100.94l-3.63-5.8-6.1 3.82 3.63 5.8 6.1-3.82zM242.85 60.26l5.86-3.52-3.7-6.17-5.87 3.52 3.71 6.17zM262.23 112.46h-6.83v7.2h6.83v-7.2zM276.58 107.05l-5.86 3.53 3.7 6.17 5.87-3.53-3.71-6.17z" fill="#004142"/>
      <path d="M239.14 113.22l5.86 3.53 3.7-6.18-5.85-3.52-3.7 6.17z" fill="#3F3D56"/>
      <path d="M231.29 80.78H223v6.12h8.28v-6.12zM288.14 86.9h8.28v-6.12h-8.28v6.12zM151.03 58.45h.83a23.38 23.38 0 0 1 22.59 23.8 23.42 23.42 0 0 1-23.39 23h-.82a23.38 23.38 0 0 1-22.6-23.8 23.42 23.42 0 0 1 23.4-23zm0-5.78a29.16 29.16 0 0 0-29.16 28.69 29.2 29.2 0 0 0 28.16 29.67l1.02.01a29.15 29.15 0 0 0 29.16-28.68 29.2 29.2 0 0 0-28.16-29.67l-1.02-.02z" fill="#004142"/>
      <path d="M154.8 45.97l-6.82-.24-.25 7.2 6.83.23.25-7.2zM172.62 53.03l-5.73-3.73-3.92 6.04 5.74 3.73 3.91-6.04zM184.14 67.69l-3.1-6.1-6.41 3.27 3.1 6.1 6.41-3.27zM179.48 103.95l3.82-5.67-5.96-4.03-3.83 5.67 5.97 4.03zM125.18 69.13l3.52-5.87-6.17-3.7-3.52 5.86 6.17 3.7zM126.9 98.89l-3.42-5.95-6.26 3.6 3.42 5.95 6.26-3.6zM135 57.89l5.99-3.32-3.5-6.3-5.97 3.32 3.49 6.3zM152.56 110.73l-6.83-.23-.25 7.2 6.83.23.25-7.2zM167.1 105.83l-5.99 3.32 3.5 6.3 5.97-3.32-3.49-6.3zM129.47 110.69l5.73 3.72 3.92-6.04-5.73-3.72-3.92 6.04zM122.74 78l-8.27-.3-.22 6.12 8.28.3.2-6.13zM179.35 86.08l8.27.28.21-6.11-8.27-.29-.21 6.12z" fill="#004142"/>
      <path d="M75.72 231.09c-.84.1-1.66.36-2.4.75a5.66 5.66 0 0 0-2.1 2.83c-1.13 2.78-1.36 5.83-1.41 8.84-.04 2.42.04 4.9.9 7.16.24.71.65 1.36 1.2 1.87.49.38 1.05.65 1.65.8 1.29.34 2.78.34 3.84-.48 1.18-.92 1.47-2.54 1.72-4.02.34-1.98.81-4.08 2.29-5.46 1.1-1.02 2.66-1.53 3.45-2.8.95-1.5.45-3.46-.15-5.13-.53-1.45-1.3-4.4-2.82-5.13-1.51-.74-4.6.48-6.17.77zM131.6 238.21a11.38 11.38 0 0 1-2.38 4.4c-.68.77-1.51 1.7-1.15 2.67.14.33.36.62.63.85 4.98 4.88 11.95 7.25 18.86 8.11.11.03.23.03.34 0 .2-.09.25-.34.28-.56.11-.73.11-1.46 0-2.18-.34-1.7-1.82-2.88-3.27-3.81-1.44-.93-3.03-1.84-3.84-3.36-1.01-1.89-.58-4.35-1.78-6.12-.97-1.44-2.77-2.04-4.48-2.32-.6-.1-1.86-.74-2.38-.44-.53.3-.65 2.17-.83 2.76z" fill="#FBBEBE"/>
      <path d="M75.04 230.91a.68.68 0 0 0-.6-.68c-.33-.03-.67.01-.98.13-.78.21-1.58.36-2.38.43-.96.1-1.93.1-2.86.34-.93.26-1.83.81-2.21 1.7a4.21 4.21 0 0 0-.25 1.6 24.38 24.38 0 0 0 .83 6.42c.04.07.1.13.17.17.12.04.26 0 .38.05.1.06.18.16.22.28.57 1.29.7 2.72.86 4.13.22 2.09.51 4.16.86 6.23.2 1.2.45 2.47 1.25 3.4.87 1.02 2.25 1.46 3.58 1.64 2.8.37 5.64-.2 8.4-.77a2.45 2.45 0 0 0 1.42-.63c.26-.32.38-.73.34-1.13-.06-1.39-1.33-2.38-2.49-3.14L79.99 250a.83.83 0 0 1-.28-.25.9.9 0 0 1-.08-.51l.1-2.04a5.83 5.83 0 0 0-5.1 3.16c-.21.44-.42.95-.88 1.12-.56.22-1.2-.26-1.39-.84-.13-.6-.11-1.2.05-1.8.93-4.98.72-10.11 1.28-15.16.04-.56.21-1.11.51-1.6.28-.38.79-.71.84-1.18zM144.43 250.26c.24.4.6.69.82 1.09.22.4.21.98-.18 1.21-.23.1-.49.13-.73.07a24.84 24.84 0 0 1-13.43-6.07 9.43 9.43 0 0 1-1.65-1.81c-.44-.68-.8-1.48-1.55-1.76a26.59 26.59 0 0 0-.68 5.91c0 1.31.18 2.8 1.25 3.56.43.27.9.46 1.39.57l2.33.66c.41.16.86.2 1.3.13.27-.08.51-.25.8-.3.3-.03.62 0 .9.11l2.02.6c.68.17 1.35.4 2 .67.57.27 1.1.63 1.66.93.94.48 1.92.87 2.92 1.2l3.55 1.22c.97.38 1.98.64 3.01.78.72.06 1.44 0 2.15.12.53.1 1.05.29 1.6.34.9.02 1.77-.24 2.51-.75.29-.16.54-.38.73-.64.51-.8.07-1.84-.43-2.64a10.35 10.35 0 0 0-3.59-3.7c-.62-.34-1.28-.6-1.92-.9-1.8-.88-3.18-2.35-4.89-3.35-1.6-.94-2.65 1.5-1.89 2.75z" fill="#004142"/>
      <path d="M94.61 107.36a14.7 14.7 0 0 1-6.27 2.45c-1.18.14-2.36.2-3.55.19a90.3 90.3 0 0 1-14.77-1.24c1.95-2.14 3.91-4.42 4.65-7.23.36-1.48.43-3.02.22-4.52a33.9 33.9 0 0 0-1.38-5.7c2.08.1 4.17.05 6.24-.17 1.18-.12 4.08-1.2 5.1-.38.95.76.23 3.44.21 4.68v.13c.06 1.88.46 3.73 1.2 5.46 1.49 3.35 4.69 6.1 8.35 6.33z" fill="#FBBEBE"/>
      <path opacity=".1" d="M85.08 95.42A12.46 12.46 0 0 1 74.88 97c-.29-1.94-.75-3.85-1.38-5.7 2.09.1 4.17.05 6.25-.16 1.18-.12 4.07-1.2 5.1-.38.96.75.24 3.44.23 4.67z" fill="#000"/>
      <path d="M78.27 96.87A12.44 12.44 0 1 0 78.26 72a12.44 12.44 0 0 0 0 24.88z" fill="#FBBEBE"/>
      <path d="M131.03 147.4a5.79 5.79 0 0 1-2.8 4.99c-.97.5-2 .87-3.06 1.07-5.69 1.36-11.52 2.48-17.36 2.15a9.55 9.55 0 0 1-3.68-.78c-1.13-.55-2.1-1.6-2.27-2.84-.01-.31-.07-.62-.18-.9a2.55 2.55 0 0 0-.87-.78 3.54 3.54 0 0 1-1.3-3.5c-.72.31-1.46-.4-1.8-1.1-.32-.71-.59-1.56-1.3-1.86-.49-.2-1.05-.08-1.56-.22-.82-.2-1.32-1.01-1.9-1.62-1.17-1.26-2.85-1.91-4.39-2.69-4.57-2.3-8.3-5.97-11.96-9.56a39.74 39.74 0 0 1-5.14-5.78c-.42-.6-.79-1.22-1.14-1.86a52.17 52.17 0 0 1-2.86-6.56c-.47-1.2-.93-2.48-.74-3.75l.06-.34c.24-.82.62-1.59 1.13-2.28 1.27-1.86 2.92-3.62 5.1-4.19 2.17-.57 4.34.12 6.55.59.74.16 1.48.28 2.23.34 2.34.17 4.66-.46 6.92-1.09l2.47-.68c1.23-.34 1.85-1.83 3.1-2.1a4.38 4.38 0 0 1 1.68.09c2.53.48 5.1 1.1 7.32 2.4.5.28.98.6 1.43.97a9.01 9.01 0 0 1 3.3 4.89c.52 2.15.04 4.45.55 6.6.42 1.78 1.5 3.33 2.54 4.83l6.07 8.67a53.91 53.91 0 0 0 4.47 5.83c3.25 3.55 9.3 6.23 9.39 11.06z" fill="#1E988A"/>
      <path d="M114.81 64.22c.26-1.18.44-2.43 1.1-3.45.45-.64.99-1.22 1.6-1.7a10.75 10.75 0 0 1 3.45-2.16c1.3-.42 2.82-.37 3.9.46 1.1.82 1.55 2.24 1.72 3.59.23 1.86 0 3.82-.92 5.44-1.05 1.84-2.88 3.06-4.42 4.53a17.67 17.67 0 0 0-2.87 3.6c-.37.68-.8 1.33-1.32 1.91a2.49 2.49 0 0 1-2.08.84c-.65-.11-1.19-.57-1.7-1-.63-.55-2.32-1.53-2.38-2.4-.04-.71 1.28-2.32 1.6-2.98 1.01-2.14 1.79-4.38 2.33-6.68z" fill="#FBBEBE"/>
      <path d="M158.52 208.37c-1.56 2.88-3.28 5.7-4.67 8.66-.81 1.74-1.51 3.53-2.42 5.22-.98 1.84-2.2 3.56-3.23 5.38-2.59 4.6-4.03 9.77-5.37 14.88a29.6 29.6 0 0 1-11.22-4.16 7.55 7.55 0 0 1-2.14-2.35c1.24-4.67 2.5-9.41 5.01-13.54.82-1.36 1.76-2.6 2.6-3.93 2.45-3.84 2.95-8.69 5.74-12.28a2.11 2.11 0 0 0 0-2.5c-.32-.42-.84-.82-.74-1.34.07-.38.46-.72.31-1.07-.07-.17-.24-.26-.38-.38-.48-.44-.41-1.19-.46-1.83-.1-1.63-1.08-3.06-2.03-4.4-.2-.3-.45-.58-.75-.8-.25-.15-.55-.22-.8-.37-.89-.56-.83-1.86-1.25-2.82-.56-1.27-1.96-1.91-2.88-2.94-1.18-1.31-1.48-3.14-2.72-4.29a3.45 3.45 0 0 0-.4-.33c.61 1.92.67 3.97.72 5.99.12 6.93-1.62 14.1-.8 21 .63 5.46-2.72 10.91-7.5 13.64-1.83 1.05-3.84 1.75-5.83 2.46a170.64 170.64 0 0 0-8.89 3.38c-2.07.85-4.1 1.78-6.11 2.77a77.16 77.16 0 0 0-7.24 4c-2.87 1.83-5.75 3.69-7.79 6.42-1.97-.06-3.78-1.24-5.03-2.77-1.25-1.53-2.04-3.4-2.76-5.22-.63-1.58-1.26-3.22-1.3-4.92a.97.97 0 0 1 .59-.85l13.65-7.24 2.55-1.36c5.59-2.97 11.38-5.71 16.96-8.67.38.1.68-.32.8-.68.1-.37.19-.84.54-1 .18-.09.4-.08.54-.23.09-.14.12-.3.1-.45-.19-2.72-2.14-5.2-1.75-7.88.17-1.14.76-2.27.5-3.4-.17-.78-.73-1.4-1.03-2.14-.68-1.65 0-3.64-.74-5.25a12.17 12.17 0 0 1-.98-3.35 22.72 22.72 0 0 0-2.09-6.63 12.07 12.07 0 0 0-1.92-2.9c-.41-.45-.87-.84-1.26-1.3-1.19-1.4-1.63-3.28-1.96-5.1-.62-3.29-1.02-6.7-.28-9.96.26-1.1.66-2.2.64-3.35-.02-1.5-.68-3.26.37-4.35.43-.39.96-.66 1.52-.78 2.41-.72 4.92-1.05 7.4-1.36l11.4-1.5c1.3-.17 2.64-.34 3.8-.99 1.54-.85 2.57-2.43 3.2-4.08 2 1.47 2.75 4.19 4.34 6.08.78.92 1.74 1.66 2.6 2.5 1.04 1.1 2 2.29 2.85 3.53 2.38 3.27 4.76 6.56 6.46 10.23.88 1.9 1.57 3.89 2.28 5.86 2.78 7.78 7.31 15.16 9.2 23.2.46 1.96 1.66 3.74 1.85 5.75.2 2.13-.78 4.19-1.8 6.09z" fill="#004142"/>
      <path opacity=".1" d="M98.82 143.79a3.5 3.5 0 0 0-.42 1.68c.26-1.26 1.99-1.95 2.1-3.2.05-.57-.06-.55-.4-.24-.55.46-.78 1.26-1.28 1.76zM104.1 147.6c-.37.32-.64.72-.8 1.18-.29.63-.35 1.36-.16 2.03.26-.11.34-.43.42-.7.13-.42.31-.83.54-1.2.2-.34 1.15-1.1 1.14-1.46 0-.54-.9-.03-1.15.16zM104.7 105.5c-.8.68-1.68 1.27-2.62 1.74-2.47 1.25-5.2 1.9-7.67 3.12a37.97 37.97 0 0 0-3.56 2.07l-7.38 4.68c-.59.34-1.14.75-1.62 1.23-.89.95-.88 2.61-1.7 3.62a4.98 4.98 0 0 1-3.58 1.66c-1.36 0-2.7-.23-3.98-.68-.78-.24-1.54-.51-2.28-.83-.78-.33-1.51-.75-2.19-1.25a6.24 6.24 0 0 1-2.57-4.08 8.06 8.06 0 0 1 .44-3.33c.2-.7.46-1.37.78-2.02.18-.37.4-.72.63-1.06 1.7-2.4 4.67-3.52 7.56-4.08 1.51-.3 3.06-.47 4.59-.73.73.16 1.48.28 2.22.34 2.35.17 4.66-.46 6.92-1.09l2.47-.68c1.24-.34 1.86-1.83 3.1-2.1a4.38 4.38 0 0 1 1.68.09c2.54.48 5.1 1.1 7.33 2.4.5.29.98.61 1.43.97z" fill="#000"/>
      <path d="M110.72 72.46c-.32 3.01-2.86 5.22-4.42 7.82-.75 1.27-1.28 2.65-1.96 3.96a39.19 39.19 0 0 1-2.58 4.1L99 92.37c-1.62 2.36-3.27 4.74-5.34 6.72-3.62.61-6.65 3.3-10.09 4.6-2.74 1.05-5.73 1.2-8.61 1.75-2.89.56-5.87 1.7-7.56 4.08a10.7 10.7 0 0 0-1.42 3.06 7.94 7.94 0 0 0-.43 3.33 6.3 6.3 0 0 0 2.57 4.07c1.31 1 2.89 1.6 4.46 2.09 1.28.45 2.63.68 3.99.68a4.85 4.85 0 0 0 3.58-1.66c.84-1.06.8-2.67 1.7-3.62.49-.48 1.03-.9 1.63-1.23l7.37-4.68a38.09 38.09 0 0 1 3.56-2.06c2.48-1.21 5.2-1.87 7.67-3.12 2.46-1.25 4.75-3.3 5.25-6.03 1.5-8.35 7.28-15.4 12.23-22.3-.17-.03-.11-.4-.17-.56a7.12 7.12 0 0 0-3.63-3.65c-1.58-.78-3.35-1-5.05-1.37z" fill="#1E988A"/>
      <path d="M84.65 72.53c.09-.91-.09-1.82-.51-2.63-.82-1.36-2.54-1.84-4.08-2.16-1.5-.3-3-.57-4.5-.79-1.24-.18-2.5-.34-3.72-.06-1.7.37-3.08 1.5-4.66 2.2-1.85.83-3.91 1.05-5.9 1.5-1.98.46-4.01 1.24-5.26 2.85-.94 1.23-1.32 2.8-1.6 4.31-2.35 12.72.18 25.76.66 38.67.19 5.03-.04 10.4-2.9 14.54l8.35-.22c2.14-.06 4.44-.17 6.12-1.49 1.48-1.16 2.18-3.04 2.81-4.81.5-1.4 1-2.82 1.07-4.3.13-3.04-1.59-6.02-1.02-9.01.42-2.23 2.04-4.03 3.78-5.5 1.73-1.46 3.66-2.72 5.07-4.51 2.5-3.18 2.98-7.51 2.67-11.54-.19-2.4-.61-4.8-.4-7.2.15-1.78.72-3.63 1.89-5.03 1.32-1.58 2.01-2.58 2.13-4.82z" fill="#004142"/>
      <path opacity=".1" d="M84.14 69.9c-.81-1.34-2.48-1.82-4.01-2.14.81.29 1.5.84 1.98 1.56.43.8.6 1.72.51 2.63-.11 2.24-.8 3.23-2.14 4.82a9.06 9.06 0 0 0-1.9 5.04c-.2 2.4.22 4.8.41 7.2.31 4.02-.17 8.36-2.67 11.53-1.4 1.78-3.34 3.06-5.07 4.51-1.73 1.46-3.36 3.27-3.78 5.5-.56 2.99 1.17 5.97 1.02 9a14.9 14.9 0 0 1-1.07 4.31c-.63 1.78-1.33 3.64-2.81 4.8-1.7 1.33-3.99 1.45-6.12 1.5l-5.92.16c-.13.22-.27.43-.42.64l8.37-.22c2.14-.06 4.44-.17 6.11-1.49 1.48-1.16 2.18-3.04 2.82-4.81.5-1.4 1-2.82 1.06-4.3.14-3.04-1.59-6.02-1.01-9.01.41-2.23 2.03-4.03 3.77-5.5 1.74-1.46 3.67-2.72 5.07-4.51 2.5-3.18 2.99-7.51 2.67-11.54-.18-2.4-.61-4.8-.4-7.2.15-1.78.72-3.63 1.9-5.03 1.32-1.58 2.03-2.58 2.13-4.82.1-.91-.08-1.82-.5-2.63zM146.96 200.92l-15.35 37.45a7.54 7.54 0 0 1-2.14-2.35c1.24-4.67 2.5-9.42 5.01-13.54.82-1.36 1.76-2.6 2.6-3.93 2.45-3.84 2.95-8.69 5.74-12.29a2.11 2.11 0 0 0 0-2.5c-.32-.42-.84-.81-.74-1.33.07-.38.46-.72.31-1.07-.07-.17-.24-.26-.38-.39-.48-.44-.41-1.18-.46-1.83-.1-1.62-1.08-3.05-2.03-4.38-.2-.32-.45-.6-.75-.8-.25-.16-.55-.23-.8-.39-.89-.55-.83-1.85-1.25-2.81-.56-1.27-1.96-1.92-2.88-2.95-1.18-1.3-1.48-3.13-2.72-4.28l-.1-.26 1.19-7.23 14.75 24.88z" fill="#000"/>
    </g>
  </g>
  <defs>
    <linearGradient id="paint0_linear" x1="106.33" y1="260.26" x2="106.33" y2="56.03" gradientUnits="userSpaceOnUse">
      <stop stop-color="gray" stop-opacity=".25"/>
      <stop offset=".54" stop-color="gray" stop-opacity=".12"/>
      <stop offset="1" stop-color="gray" stop-opacity=".1"/>
    </linearGradient>
    <clipPath id="clip0">
      <path fill="#fff" d="M0 0h375v269H0z"/>
    </clipPath>
    <clipPath id="clip1">
      <path fill="#fff" transform="translate(16 7)" d="M0 0h343v255.12H0z"/>
    </clipPath>
  </defs>
</svg>